<mxfile host="Electron" modified="2025-08-22T10:47:28.533Z" agent="Mozilla/5.0 (Macintosh; Intel Mac OS X 10_15_7) AppleWebKit/537.36 (KHTML, like Gecko) draw.io/24.2.5 Chrome/120.0.6099.109 Electron/28.1.0 Safari/537.36" etag="NPuyqetFPBus06n2HsB2" version="24.2.5" type="device">
  <diagram name="Page-1" id="4-UP7eaRy46qQjtS2-Vu">
    <mxGraphModel dx="1230" dy="791" grid="1" gridSize="10" guides="1" tooltips="1" connect="1" arrows="1" fold="1" page="1" pageScale="1" pageWidth="827" pageHeight="1169" math="0" shadow="0">
      <root>
        <mxCell id="0" />
        <mxCell id="1" parent="0" />
        <mxCell id="Feb79fq3Hk4bq48afi2d-2" value="input ids" style="rounded=1;whiteSpace=wrap;html=1;fillColor=#dae8fc;strokeColor=#6c8ebf;" vertex="1" parent="1">
          <mxGeometry x="250" y="110" width="120" height="60" as="geometry" />
        </mxCell>
        <mxCell id="Feb79fq3Hk4bq48afi2d-4" value="modality mask" style="rounded=1;whiteSpace=wrap;html=1;fillColor=#dae8fc;strokeColor=#6c8ebf;" vertex="1" parent="1">
          <mxGeometry x="430" y="110" width="120" height="60" as="geometry" />
        </mxCell>
        <mxCell id="Feb79fq3Hk4bq48afi2d-19" style="edgeStyle=orthogonalEdgeStyle;rounded=0;orthogonalLoop=1;jettySize=auto;html=1;exitX=0.5;exitY=1;exitDx=0;exitDy=0;entryX=0.5;entryY=0;entryDx=0;entryDy=0;" edge="1" parent="1" source="Feb79fq3Hk4bq48afi2d-8" target="Feb79fq3Hk4bq48afi2d-18">
          <mxGeometry relative="1" as="geometry" />
        </mxCell>
        <mxCell id="Feb79fq3Hk4bq48afi2d-8" value="&lt;font style=&quot;font-size: 11px;&quot;&gt;Text Token ids&lt;/font&gt;&lt;div style=&quot;font-size: 11px;&quot;&gt;&lt;font style=&quot;font-size: 11px;&quot;&gt;(Batch_Size, Text_Seq_len)&lt;/font&gt;&lt;/div&gt;" style="rounded=1;whiteSpace=wrap;html=1;fillColor=#ffe6cc;strokeColor=#d79b00;" vertex="1" parent="1">
          <mxGeometry x="240" y="200" width="120" height="60" as="geometry" />
        </mxCell>
        <mxCell id="Feb79fq3Hk4bq48afi2d-22" value="" style="edgeStyle=orthogonalEdgeStyle;rounded=0;orthogonalLoop=1;jettySize=auto;html=1;" edge="1" parent="1" source="Feb79fq3Hk4bq48afi2d-10" target="Feb79fq3Hk4bq48afi2d-21">
          <mxGeometry relative="1" as="geometry" />
        </mxCell>
        <mxCell id="Feb79fq3Hk4bq48afi2d-10" value="&lt;font style=&quot;font-size: 11px;&quot;&gt;DNA Token ids&lt;/font&gt;&lt;div style=&quot;font-size: 11px;&quot;&gt;&lt;font style=&quot;font-size: 11px;&quot;&gt;(Batch_Size, DNA_Seq_len)&lt;/font&gt;&lt;/div&gt;" style="rounded=1;whiteSpace=wrap;html=1;fillColor=#e1d5e7;strokeColor=#9673a6;" vertex="1" parent="1">
          <mxGeometry x="430" y="200" width="120" height="60" as="geometry" />
        </mxCell>
        <mxCell id="Feb79fq3Hk4bq48afi2d-14" value="" style="endArrow=none;html=1;rounded=0;entryX=0;entryY=0.5;entryDx=0;entryDy=0;" edge="1" parent="1" target="Feb79fq3Hk4bq48afi2d-4">
          <mxGeometry width="50" height="50" relative="1" as="geometry">
            <mxPoint x="370" y="140" as="sourcePoint" />
            <mxPoint x="420" y="90" as="targetPoint" />
          </mxGeometry>
        </mxCell>
        <mxCell id="Feb79fq3Hk4bq48afi2d-15" value="" style="endArrow=classic;html=1;rounded=0;entryX=0.5;entryY=0;entryDx=0;entryDy=0;" edge="1" parent="1" target="Feb79fq3Hk4bq48afi2d-8">
          <mxGeometry width="50" height="50" relative="1" as="geometry">
            <mxPoint x="400" y="140" as="sourcePoint" />
            <mxPoint x="450" y="80" as="targetPoint" />
            <Array as="points">
              <mxPoint x="400" y="180" />
              <mxPoint x="300" y="180" />
            </Array>
          </mxGeometry>
        </mxCell>
        <mxCell id="Feb79fq3Hk4bq48afi2d-17" value="" style="endArrow=classic;html=1;rounded=0;entryX=0.5;entryY=0;entryDx=0;entryDy=0;" edge="1" parent="1" target="Feb79fq3Hk4bq48afi2d-10">
          <mxGeometry width="50" height="50" relative="1" as="geometry">
            <mxPoint x="400" y="140" as="sourcePoint" />
            <mxPoint x="300" y="230" as="targetPoint" />
            <Array as="points">
              <mxPoint x="400" y="180" />
              <mxPoint x="300" y="180" />
              <mxPoint x="490" y="180" />
            </Array>
          </mxGeometry>
        </mxCell>
        <mxCell id="Feb79fq3Hk4bq48afi2d-47" style="edgeStyle=orthogonalEdgeStyle;rounded=0;orthogonalLoop=1;jettySize=auto;html=1;entryX=0.5;entryY=0;entryDx=0;entryDy=0;" edge="1" parent="1" source="Feb79fq3Hk4bq48afi2d-18" target="Feb79fq3Hk4bq48afi2d-43">
          <mxGeometry relative="1" as="geometry">
            <mxPoint x="310" y="420" as="targetPoint" />
          </mxGeometry>
        </mxCell>
        <mxCell id="Feb79fq3Hk4bq48afi2d-18" value="Text_Embeddings" style="shape=trapezoid;perimeter=trapezoidPerimeter;whiteSpace=wrap;html=1;fixedSize=1;fillColor=#f5f5f5;fontColor=#333333;strokeColor=#666666;" vertex="1" parent="1">
          <mxGeometry x="240" y="290" width="120" height="60" as="geometry" />
        </mxCell>
        <mxCell id="Feb79fq3Hk4bq48afi2d-25" value="" style="edgeStyle=orthogonalEdgeStyle;rounded=0;orthogonalLoop=1;jettySize=auto;html=1;" edge="1" parent="1" source="Feb79fq3Hk4bq48afi2d-21" target="Feb79fq3Hk4bq48afi2d-23">
          <mxGeometry relative="1" as="geometry" />
        </mxCell>
        <mxCell id="Feb79fq3Hk4bq48afi2d-21" value="Base_ids Embeddings" style="shape=trapezoid;perimeter=trapezoidPerimeter;whiteSpace=wrap;html=1;fixedSize=1;fillColor=#f5f5f5;fontColor=#333333;strokeColor=#666666;" vertex="1" parent="1">
          <mxGeometry x="430" y="290" width="120" height="60" as="geometry" />
        </mxCell>
        <mxCell id="Feb79fq3Hk4bq48afi2d-31" value="" style="edgeStyle=orthogonalEdgeStyle;rounded=0;orthogonalLoop=1;jettySize=auto;html=1;" edge="1" parent="1" source="Feb79fq3Hk4bq48afi2d-23" target="Feb79fq3Hk4bq48afi2d-29">
          <mxGeometry relative="1" as="geometry" />
        </mxCell>
        <mxCell id="Feb79fq3Hk4bq48afi2d-23" value="DNA Base Ids&lt;div&gt;(Batch_Size, DNA_Seq_len, Max_BPE_len)&lt;/div&gt;" style="rounded=1;whiteSpace=wrap;html=1;fillColor=#e1d5e7;strokeColor=#9673a6;" vertex="1" parent="1">
          <mxGeometry x="590" y="290" width="120" height="60" as="geometry" />
        </mxCell>
        <mxCell id="Feb79fq3Hk4bq48afi2d-35" value="" style="edgeStyle=orthogonalEdgeStyle;rounded=0;orthogonalLoop=1;jettySize=auto;html=1;" edge="1" parent="1" source="Feb79fq3Hk4bq48afi2d-29" target="Feb79fq3Hk4bq48afi2d-34">
          <mxGeometry relative="1" as="geometry" />
        </mxCell>
        <mxCell id="Feb79fq3Hk4bq48afi2d-29" value="DNA Base Ids&lt;div&gt;(Batch_Size * DNA_Seq_len, Max_BPE_len)&lt;/div&gt;" style="rounded=1;whiteSpace=wrap;html=1;fillColor=#e1d5e7;strokeColor=#9673a6;" vertex="1" parent="1">
          <mxGeometry x="590" y="370" width="120" height="60" as="geometry" />
        </mxCell>
        <mxCell id="Feb79fq3Hk4bq48afi2d-32" value="Reshape" style="text;html=1;align=center;verticalAlign=middle;whiteSpace=wrap;rounded=0;" vertex="1" parent="1">
          <mxGeometry x="560" y="340" width="60" height="30" as="geometry" />
        </mxCell>
        <mxCell id="Feb79fq3Hk4bq48afi2d-38" value="" style="edgeStyle=orthogonalEdgeStyle;rounded=0;orthogonalLoop=1;jettySize=auto;html=1;" edge="1" parent="1" source="Feb79fq3Hk4bq48afi2d-34" target="Feb79fq3Hk4bq48afi2d-37">
          <mxGeometry relative="1" as="geometry" />
        </mxCell>
        <mxCell id="Feb79fq3Hk4bq48afi2d-34" value="Base Embeddings" style="shape=trapezoid;perimeter=trapezoidPerimeter;whiteSpace=wrap;html=1;fixedSize=1;fillColor=#f5f5f5;fontColor=#333333;strokeColor=#666666;" vertex="1" parent="1">
          <mxGeometry x="430" y="370" width="120" height="60" as="geometry" />
        </mxCell>
        <mxCell id="Feb79fq3Hk4bq48afi2d-40" value="" style="edgeStyle=orthogonalEdgeStyle;rounded=0;orthogonalLoop=1;jettySize=auto;html=1;" edge="1" parent="1" source="Feb79fq3Hk4bq48afi2d-37" target="Feb79fq3Hk4bq48afi2d-39">
          <mxGeometry relative="1" as="geometry" />
        </mxCell>
        <mxCell id="Feb79fq3Hk4bq48afi2d-37" value="Encoder" style="shape=trapezoid;perimeter=trapezoidPerimeter;whiteSpace=wrap;html=1;fixedSize=1;fillColor=#f5f5f5;fontColor=#333333;strokeColor=#666666;" vertex="1" parent="1">
          <mxGeometry x="430" y="450" width="120" height="60" as="geometry" />
        </mxCell>
        <mxCell id="Feb79fq3Hk4bq48afi2d-42" value="" style="edgeStyle=orthogonalEdgeStyle;rounded=0;orthogonalLoop=1;jettySize=auto;html=1;" edge="1" parent="1" source="Feb79fq3Hk4bq48afi2d-39" target="Feb79fq3Hk4bq48afi2d-41">
          <mxGeometry relative="1" as="geometry" />
        </mxCell>
        <mxCell id="Feb79fq3Hk4bq48afi2d-39" value="Head" style="shape=trapezoid;perimeter=trapezoidPerimeter;whiteSpace=wrap;html=1;fixedSize=1;fillColor=#f5f5f5;fontColor=#333333;strokeColor=#666666;" vertex="1" parent="1">
          <mxGeometry x="430" y="530" width="120" height="60" as="geometry" />
        </mxCell>
        <mxCell id="Feb79fq3Hk4bq48afi2d-45" value="" style="edgeStyle=orthogonalEdgeStyle;rounded=0;orthogonalLoop=1;jettySize=auto;html=1;" edge="1" parent="1" source="Feb79fq3Hk4bq48afi2d-41" target="Feb79fq3Hk4bq48afi2d-44">
          <mxGeometry relative="1" as="geometry" />
        </mxCell>
        <mxCell id="Feb79fq3Hk4bq48afi2d-41" value="DNA Embeddings&lt;div&gt;(Batch_Size * DNA_Seq_len, D)&lt;br&gt;&lt;/div&gt;" style="rounded=1;whiteSpace=wrap;html=1;fillColor=#e1d5e7;strokeColor=#9673a6;" vertex="1" parent="1">
          <mxGeometry x="600" y="530" width="120" height="60" as="geometry" />
        </mxCell>
        <mxCell id="Feb79fq3Hk4bq48afi2d-49" style="edgeStyle=orthogonalEdgeStyle;rounded=0;orthogonalLoop=1;jettySize=auto;html=1;" edge="1" parent="1" source="Feb79fq3Hk4bq48afi2d-43" target="Feb79fq3Hk4bq48afi2d-48">
          <mxGeometry relative="1" as="geometry">
            <Array as="points">
              <mxPoint x="460" y="650" />
            </Array>
          </mxGeometry>
        </mxCell>
        <mxCell id="Feb79fq3Hk4bq48afi2d-43" value="Text Embeddings&amp;nbsp;&lt;div&gt;&lt;span style=&quot;font-size: 11px;&quot;&gt;(Batch_Size, Text_Seq_len, D)&lt;/span&gt;&lt;br&gt;&lt;/div&gt;" style="rounded=1;whiteSpace=wrap;html=1;fillColor=#ffe6cc;strokeColor=#d79b00;" vertex="1" parent="1">
          <mxGeometry x="240" y="620" width="120" height="60" as="geometry" />
        </mxCell>
        <mxCell id="Feb79fq3Hk4bq48afi2d-44" value="DNA Embeddings&lt;div&gt;(Batch_Size, DNA_Seq_len, D)&lt;br&gt;&lt;/div&gt;" style="rounded=1;whiteSpace=wrap;html=1;fillColor=#e1d5e7;strokeColor=#9673a6;" vertex="1" parent="1">
          <mxGeometry x="600" y="620" width="120" height="60" as="geometry" />
        </mxCell>
        <mxCell id="Feb79fq3Hk4bq48afi2d-46" value="Reshape" style="text;html=1;align=center;verticalAlign=middle;whiteSpace=wrap;rounded=0;" vertex="1" parent="1">
          <mxGeometry x="580" y="590" width="60" height="30" as="geometry" />
        </mxCell>
        <mxCell id="Feb79fq3Hk4bq48afi2d-48" value="Embeddings" style="rounded=1;whiteSpace=wrap;html=1;fillColor=#dae8fc;strokeColor=#6c8ebf;" vertex="1" parent="1">
          <mxGeometry x="413" y="700" width="120" height="60" as="geometry" />
        </mxCell>
        <mxCell id="Feb79fq3Hk4bq48afi2d-51" style="edgeStyle=orthogonalEdgeStyle;rounded=0;orthogonalLoop=1;jettySize=auto;html=1;exitX=0;exitY=0.5;exitDx=0;exitDy=0;entryX=0.577;entryY=-0.028;entryDx=0;entryDy=0;entryPerimeter=0;" edge="1" parent="1" source="Feb79fq3Hk4bq48afi2d-44" target="Feb79fq3Hk4bq48afi2d-48">
          <mxGeometry relative="1" as="geometry" />
        </mxCell>
      </root>
    </mxGraphModel>
  </diagram>
</mxfile>
